<svg fill="none" height="300" viewBox="0 0 300 300" width="300" xmlns="http://www.w3.org/2000/svg" xmlns:xlink="http://www.w3.org/1999/xlink"><linearGradient id="a" gradientUnits="userSpaceOnUse" x1="179.973" x2=".000029" y1="194.458" y2="194.458"><stop offset="0" stop-color="#00b87e"/><stop offset="1" stop-color="#157857"/></linearGradient><clipPath id="b"><path d="m0 0h300v300h-300z"/></clipPath><g clip-path="url(#b)"><path clip-rule="evenodd" d="m128.688 0h162.607c4.795 0 8.683 3.88754 8.683 8.68307v195.74793c0 4.795-3.888 8.683-8.683 8.683h-35.881v-178.8315c0-3.866-3.134-7-7-7h-128.409v-18.59943c0-4.79553 3.887-8.68307 8.683-8.68307z" fill="#157857" fill-rule="evenodd"/><path clip-rule="evenodd" d="m68.6859 43.4487h162.6071c4.796 0 8.683 3.8876 8.683 8.6831v195.7472c0 4.796-3.887 8.683-8.683 8.683h-35.749v-178.8295c0-3.866-3.134-7-7-7h-128.5412v-18.6007c0-4.7955 3.8875-8.6831 8.6831-8.6831z" fill="#00b87e" fill-rule="evenodd"/><path d="m8.68311 86.8864h162.60689c4.796 0 8.683 3.8875 8.683 8.683v195.7476c0 4.795-3.887 8.683-8.683 8.683h-162.60689c-4.79554 0-8.68307948-3.888-8.68307948-8.683v-195.7476c0-4.7955 3.88753948-8.683 8.68307948-8.683z" fill="url(#a)"/></g></svg>